<mxfile host="app.diagrams.net" modified="2024-02-04T03:57:15.010Z" agent="Mozilla/5.0 (Macintosh; Intel Mac OS X 10_15_7) AppleWebKit/537.36 (KHTML, like Gecko) Chrome/121.0.0.0 Safari/537.36" etag="JCpI2awbRodglqxRos9_" version="23.1.1" type="device">
  <diagram id="C5RBs43oDa-KdzZeNtuy" name="Page-1">
    <mxGraphModel dx="2074" dy="1121" grid="1" gridSize="10" guides="1" tooltips="1" connect="1" arrows="1" fold="1" page="1" pageScale="1" pageWidth="827" pageHeight="1169" math="0" shadow="0">
      <root>
        <mxCell id="WIyWlLk6GJQsqaUBKTNV-0" />
        <mxCell id="WIyWlLk6GJQsqaUBKTNV-1" parent="WIyWlLk6GJQsqaUBKTNV-0" />
        <mxCell id="q9somQ8PHzDrMWNN9HAV-2" value="" style="edgeStyle=orthogonalEdgeStyle;rounded=0;orthogonalLoop=1;jettySize=auto;html=1;" edge="1" parent="WIyWlLk6GJQsqaUBKTNV-1" source="WIyWlLk6GJQsqaUBKTNV-3" target="q9somQ8PHzDrMWNN9HAV-1">
          <mxGeometry relative="1" as="geometry" />
        </mxCell>
        <mxCell id="WIyWlLk6GJQsqaUBKTNV-3" value="Aシステムの〇〇ページを開いて〜ボタンを押す" style="rounded=1;whiteSpace=wrap;html=1;fontSize=12;glass=0;strokeWidth=1;shadow=0;" parent="WIyWlLk6GJQsqaUBKTNV-1" vertex="1">
          <mxGeometry x="160" y="30" width="170" height="40" as="geometry" />
        </mxCell>
        <mxCell id="q9somQ8PHzDrMWNN9HAV-4" value="" style="edgeStyle=orthogonalEdgeStyle;rounded=0;orthogonalLoop=1;jettySize=auto;html=1;" edge="1" parent="WIyWlLk6GJQsqaUBKTNV-1" source="q9somQ8PHzDrMWNN9HAV-1" target="q9somQ8PHzDrMWNN9HAV-3">
          <mxGeometry relative="1" as="geometry" />
        </mxCell>
        <mxCell id="q9somQ8PHzDrMWNN9HAV-1" value="△△ボタンを押してCSVダウンロード" style="rounded=1;whiteSpace=wrap;html=1;glass=0;strokeWidth=1;shadow=0;" vertex="1" parent="WIyWlLk6GJQsqaUBKTNV-1">
          <mxGeometry x="160" y="100" width="170" height="50" as="geometry" />
        </mxCell>
        <mxCell id="q9somQ8PHzDrMWNN9HAV-6" value="" style="edgeStyle=orthogonalEdgeStyle;rounded=0;orthogonalLoop=1;jettySize=auto;html=1;" edge="1" parent="WIyWlLk6GJQsqaUBKTNV-1" source="q9somQ8PHzDrMWNN9HAV-3" target="q9somQ8PHzDrMWNN9HAV-5">
          <mxGeometry relative="1" as="geometry" />
        </mxCell>
        <mxCell id="q9somQ8PHzDrMWNN9HAV-3" value="ダウンロード待ちをし、ダウンロードが終わったらそのファイルをフォルダに移動する" style="whiteSpace=wrap;html=1;rounded=1;glass=0;strokeWidth=1;shadow=0;" vertex="1" parent="WIyWlLk6GJQsqaUBKTNV-1">
          <mxGeometry x="160" y="190" width="170" height="60" as="geometry" />
        </mxCell>
        <mxCell id="q9somQ8PHzDrMWNN9HAV-9" value="" style="edgeStyle=orthogonalEdgeStyle;rounded=0;orthogonalLoop=1;jettySize=auto;html=1;" edge="1" parent="WIyWlLk6GJQsqaUBKTNV-1" source="q9somQ8PHzDrMWNN9HAV-5" target="q9somQ8PHzDrMWNN9HAV-8">
          <mxGeometry relative="1" as="geometry" />
        </mxCell>
        <mxCell id="q9somQ8PHzDrMWNN9HAV-5" value="〇〇列と〇〇列を削除" style="rounded=1;whiteSpace=wrap;html=1;glass=0;strokeWidth=1;shadow=0;" vertex="1" parent="WIyWlLk6GJQsqaUBKTNV-1">
          <mxGeometry x="160" y="280" width="170" height="60" as="geometry" />
        </mxCell>
        <mxCell id="q9somQ8PHzDrMWNN9HAV-7" value="この時〜があったらその列も削除" style="shape=note;whiteSpace=wrap;html=1;backgroundOutline=1;darkOpacity=0.05;" vertex="1" parent="WIyWlLk6GJQsqaUBKTNV-1">
          <mxGeometry x="310" y="310" width="106" height="90" as="geometry" />
        </mxCell>
        <mxCell id="q9somQ8PHzDrMWNN9HAV-12" value="" style="edgeStyle=orthogonalEdgeStyle;rounded=0;orthogonalLoop=1;jettySize=auto;html=1;" edge="1" parent="WIyWlLk6GJQsqaUBKTNV-1" source="q9somQ8PHzDrMWNN9HAV-8" target="q9somQ8PHzDrMWNN9HAV-11">
          <mxGeometry relative="1" as="geometry" />
        </mxCell>
        <mxCell id="q9somQ8PHzDrMWNN9HAV-8" value="データ項目をチェック" style="rounded=1;whiteSpace=wrap;html=1;glass=0;strokeWidth=1;shadow=0;" vertex="1" parent="WIyWlLk6GJQsqaUBKTNV-1">
          <mxGeometry x="160" y="440" width="170" height="60" as="geometry" />
        </mxCell>
        <mxCell id="q9somQ8PHzDrMWNN9HAV-10" value="&lt;span style=&quot;background-color: initial;&quot;&gt;- 開始終了の時間が逆転してないか&lt;br&gt;- 生産量が0になってないか&lt;br&gt;&lt;/span&gt;" style="shape=note;whiteSpace=wrap;html=1;backgroundOutline=1;darkOpacity=0.05;align=left;" vertex="1" parent="WIyWlLk6GJQsqaUBKTNV-1">
          <mxGeometry x="310" y="480" width="150" height="80" as="geometry" />
        </mxCell>
        <mxCell id="q9somQ8PHzDrMWNN9HAV-14" value="" style="edgeStyle=orthogonalEdgeStyle;rounded=0;orthogonalLoop=1;jettySize=auto;html=1;" edge="1" parent="WIyWlLk6GJQsqaUBKTNV-1" source="q9somQ8PHzDrMWNN9HAV-11" target="q9somQ8PHzDrMWNN9HAV-13">
          <mxGeometry relative="1" as="geometry" />
        </mxCell>
        <mxCell id="q9somQ8PHzDrMWNN9HAV-11" value="Bシステムの〜ページを開く" style="rounded=1;whiteSpace=wrap;html=1;glass=0;strokeWidth=1;shadow=0;" vertex="1" parent="WIyWlLk6GJQsqaUBKTNV-1">
          <mxGeometry x="160" y="570" width="170" height="60" as="geometry" />
        </mxCell>
        <mxCell id="q9somQ8PHzDrMWNN9HAV-32" value="" style="edgeStyle=orthogonalEdgeStyle;rounded=0;orthogonalLoop=1;jettySize=auto;html=1;" edge="1" parent="WIyWlLk6GJQsqaUBKTNV-1" source="q9somQ8PHzDrMWNN9HAV-13" target="q9somQ8PHzDrMWNN9HAV-31">
          <mxGeometry relative="1" as="geometry" />
        </mxCell>
        <mxCell id="q9somQ8PHzDrMWNN9HAV-13" value="開始時刻にC列&lt;br&gt;終了時刻にD列&lt;br&gt;生産量にE列&lt;br&gt;のデータをそれぞれ入れる" style="rounded=1;whiteSpace=wrap;html=1;glass=0;strokeWidth=1;shadow=0;" vertex="1" parent="WIyWlLk6GJQsqaUBKTNV-1">
          <mxGeometry x="160" y="710" width="170" height="80" as="geometry" />
        </mxCell>
        <mxCell id="q9somQ8PHzDrMWNN9HAV-15" value="" style="shape=image;verticalLabelPosition=bottom;labelBackgroundColor=default;verticalAlign=top;aspect=fixed;imageAspect=0;image=https://saap.jp/wp-content/themes/azip_sv/img/casestudy/07_daoly_report_01.jpg;" vertex="1" parent="WIyWlLk6GJQsqaUBKTNV-1">
          <mxGeometry x="600" y="671.3900000000001" width="335" height="157.21" as="geometry" />
        </mxCell>
        <mxCell id="q9somQ8PHzDrMWNN9HAV-16" value="Table" style="shape=table;startSize=30;container=1;collapsible=0;childLayout=tableLayout;strokeColor=default;fontSize=12;" vertex="1" parent="WIyWlLk6GJQsqaUBKTNV-1">
          <mxGeometry x="340" y="710" width="190" height="95" as="geometry" />
        </mxCell>
        <mxCell id="q9somQ8PHzDrMWNN9HAV-17" value="" style="shape=tableRow;horizontal=0;startSize=0;swimlaneHead=0;swimlaneBody=0;strokeColor=inherit;top=0;left=0;bottom=0;right=0;collapsible=0;dropTarget=0;fillColor=none;points=[[0,0.5],[1,0.5]];portConstraint=eastwest;fontSize=16;" vertex="1" parent="q9somQ8PHzDrMWNN9HAV-16">
          <mxGeometry y="30" width="190" height="22" as="geometry" />
        </mxCell>
        <mxCell id="q9somQ8PHzDrMWNN9HAV-18" value="生産個数" style="shape=partialRectangle;html=1;whiteSpace=wrap;connectable=0;strokeColor=inherit;overflow=hidden;fillColor=none;top=0;left=0;bottom=0;right=0;pointerEvents=1;fontSize=9;" vertex="1" parent="q9somQ8PHzDrMWNN9HAV-17">
          <mxGeometry width="64" height="22" as="geometry">
            <mxRectangle width="64" height="22" as="alternateBounds" />
          </mxGeometry>
        </mxCell>
        <mxCell id="q9somQ8PHzDrMWNN9HAV-19" value="開始時間" style="shape=partialRectangle;html=1;whiteSpace=wrap;connectable=0;strokeColor=inherit;overflow=hidden;fillColor=none;top=0;left=0;bottom=0;right=0;pointerEvents=1;fontSize=9;" vertex="1" parent="q9somQ8PHzDrMWNN9HAV-17">
          <mxGeometry x="64" width="62" height="22" as="geometry">
            <mxRectangle width="62" height="22" as="alternateBounds" />
          </mxGeometry>
        </mxCell>
        <mxCell id="q9somQ8PHzDrMWNN9HAV-20" value="有料時間" style="shape=partialRectangle;html=1;whiteSpace=wrap;connectable=0;strokeColor=inherit;overflow=hidden;fillColor=none;top=0;left=0;bottom=0;right=0;pointerEvents=1;fontSize=9;" vertex="1" parent="q9somQ8PHzDrMWNN9HAV-17">
          <mxGeometry x="126" width="64" height="22" as="geometry">
            <mxRectangle width="64" height="22" as="alternateBounds" />
          </mxGeometry>
        </mxCell>
        <mxCell id="q9somQ8PHzDrMWNN9HAV-21" value="" style="shape=tableRow;horizontal=0;startSize=0;swimlaneHead=0;swimlaneBody=0;strokeColor=inherit;top=0;left=0;bottom=0;right=0;collapsible=0;dropTarget=0;fillColor=none;points=[[0,0.5],[1,0.5]];portConstraint=eastwest;fontSize=16;" vertex="1" parent="q9somQ8PHzDrMWNN9HAV-16">
          <mxGeometry y="52" width="190" height="21" as="geometry" />
        </mxCell>
        <mxCell id="q9somQ8PHzDrMWNN9HAV-22" value="100&lt;br&gt;" style="shape=partialRectangle;html=1;whiteSpace=wrap;connectable=0;strokeColor=inherit;overflow=hidden;fillColor=none;top=0;left=0;bottom=0;right=0;pointerEvents=1;fontSize=9;" vertex="1" parent="q9somQ8PHzDrMWNN9HAV-21">
          <mxGeometry width="64" height="21" as="geometry">
            <mxRectangle width="64" height="21" as="alternateBounds" />
          </mxGeometry>
        </mxCell>
        <mxCell id="q9somQ8PHzDrMWNN9HAV-23" value="10:00" style="shape=partialRectangle;html=1;whiteSpace=wrap;connectable=0;strokeColor=inherit;overflow=hidden;fillColor=none;top=0;left=0;bottom=0;right=0;pointerEvents=1;fontSize=9;" vertex="1" parent="q9somQ8PHzDrMWNN9HAV-21">
          <mxGeometry x="64" width="62" height="21" as="geometry">
            <mxRectangle width="62" height="21" as="alternateBounds" />
          </mxGeometry>
        </mxCell>
        <mxCell id="q9somQ8PHzDrMWNN9HAV-24" value="11:00" style="shape=partialRectangle;html=1;whiteSpace=wrap;connectable=0;strokeColor=inherit;overflow=hidden;fillColor=none;top=0;left=0;bottom=0;right=0;pointerEvents=1;fontSize=9;" vertex="1" parent="q9somQ8PHzDrMWNN9HAV-21">
          <mxGeometry x="126" width="64" height="21" as="geometry">
            <mxRectangle width="64" height="21" as="alternateBounds" />
          </mxGeometry>
        </mxCell>
        <mxCell id="q9somQ8PHzDrMWNN9HAV-25" value="" style="shape=tableRow;horizontal=0;startSize=0;swimlaneHead=0;swimlaneBody=0;strokeColor=inherit;top=0;left=0;bottom=0;right=0;collapsible=0;dropTarget=0;fillColor=none;points=[[0,0.5],[1,0.5]];portConstraint=eastwest;fontSize=16;" vertex="1" parent="q9somQ8PHzDrMWNN9HAV-16">
          <mxGeometry y="73" width="190" height="22" as="geometry" />
        </mxCell>
        <mxCell id="q9somQ8PHzDrMWNN9HAV-26" value="200" style="shape=partialRectangle;html=1;whiteSpace=wrap;connectable=0;strokeColor=inherit;overflow=hidden;fillColor=none;top=0;left=0;bottom=0;right=0;pointerEvents=1;fontSize=9;" vertex="1" parent="q9somQ8PHzDrMWNN9HAV-25">
          <mxGeometry width="64" height="22" as="geometry">
            <mxRectangle width="64" height="22" as="alternateBounds" />
          </mxGeometry>
        </mxCell>
        <mxCell id="q9somQ8PHzDrMWNN9HAV-27" value="11:20" style="shape=partialRectangle;html=1;whiteSpace=wrap;connectable=0;strokeColor=inherit;overflow=hidden;fillColor=none;top=0;left=0;bottom=0;right=0;pointerEvents=1;fontSize=9;" vertex="1" parent="q9somQ8PHzDrMWNN9HAV-25">
          <mxGeometry x="64" width="62" height="22" as="geometry">
            <mxRectangle width="62" height="22" as="alternateBounds" />
          </mxGeometry>
        </mxCell>
        <mxCell id="q9somQ8PHzDrMWNN9HAV-28" value="11:40" style="shape=partialRectangle;html=1;whiteSpace=wrap;connectable=0;strokeColor=inherit;overflow=hidden;fillColor=none;top=0;left=0;bottom=0;right=0;pointerEvents=1;fontSize=9;" vertex="1" parent="q9somQ8PHzDrMWNN9HAV-25">
          <mxGeometry x="126" width="64" height="22" as="geometry">
            <mxRectangle width="64" height="22" as="alternateBounds" />
          </mxGeometry>
        </mxCell>
        <mxCell id="q9somQ8PHzDrMWNN9HAV-29" value="" style="endArrow=classic;html=1;rounded=0;" edge="1" parent="WIyWlLk6GJQsqaUBKTNV-1" source="q9somQ8PHzDrMWNN9HAV-21">
          <mxGeometry width="50" height="50" relative="1" as="geometry">
            <mxPoint x="570" y="730" as="sourcePoint" />
            <mxPoint x="620" y="710.0013186813186" as="targetPoint" />
            <Array as="points" />
          </mxGeometry>
        </mxCell>
        <mxCell id="q9somQ8PHzDrMWNN9HAV-30" value="" style="endArrow=classic;html=1;rounded=0;exitX=1;exitY=0.5;exitDx=0;exitDy=0;" edge="1" parent="WIyWlLk6GJQsqaUBKTNV-1" source="q9somQ8PHzDrMWNN9HAV-21">
          <mxGeometry width="50" height="50" relative="1" as="geometry">
            <mxPoint x="520" y="772.4999999999998" as="sourcePoint" />
            <mxPoint x="620" y="720.0013186813186" as="targetPoint" />
            <Array as="points" />
          </mxGeometry>
        </mxCell>
        <mxCell id="q9somQ8PHzDrMWNN9HAV-31" value="保存ボタンを押して終了" style="rounded=1;whiteSpace=wrap;html=1;glass=0;strokeWidth=1;shadow=0;" vertex="1" parent="WIyWlLk6GJQsqaUBKTNV-1">
          <mxGeometry x="160" y="880" width="170" height="60" as="geometry" />
        </mxCell>
      </root>
    </mxGraphModel>
  </diagram>
</mxfile>
